<?xml version="1.0" encoding="utf-8" standalone="no"?>
<!DOCTYPE svg PUBLIC "-//W3C//DTD SVG 1.1//EN"
  "http://www.w3.org/Graphics/SVG/1.1/DTD/svg11.dtd">
<!-- Created with matplotlib (http://matplotlib.org/) -->
<svg height="345pt" version="1.1" viewBox="0 0 460 345" width="460pt" xmlns="http://www.w3.org/2000/svg" xmlns:xlink="http://www.w3.org/1999/xlink">
 <defs>
  <style type="text/css">
*{stroke-linecap:butt;stroke-linejoin:round;}
  </style>
 </defs>
 <g id="figure_1">
  <g id="patch_1">
   <path d="M 0 345.6 
L 460.8 345.6 
L 460.8 0 
L 0 0 
z
" style="fill:#ffffff;"/>
  </g>
  <g id="axes_1">
   <g id="patch_2">
    <path d="M 57.6 159.744 
L 414.72 159.744 
L 414.72 41.472 
L 57.6 41.472 
z
" style="fill:#ffffff;"/>
   </g>
   <g id="matplotlib.axis_1">
    <g id="xtick_1">
     <g id="line2d_1">
      <defs>
       <path d="M 0 0 
L 0 3.5 
" id="mc233ed3a67" style="stroke:#000000;stroke-width:0.8;"/>
      </defs>
      <g>
       <use style="stroke:#000000;stroke-width:0.8;" x="57.183776" xlink:href="#mc233ed3a67" y="159.744"/>
      </g>
     </g>
     <g id="text_1">
      <!-- 0 -->
      <defs>
       <path d="M 31.78125 66.40625 
Q 24.171875 66.40625 20.328125 58.90625 
Q 16.5 51.421875 16.5 36.375 
Q 16.5 21.390625 20.328125 13.890625 
Q 24.171875 6.390625 31.78125 6.390625 
Q 39.453125 6.390625 43.28125 13.890625 
Q 47.125 21.390625 47.125 36.375 
Q 47.125 51.421875 43.28125 58.90625 
Q 39.453125 66.40625 31.78125 66.40625 
M 31.78125 74.21875 
Q 44.046875 74.21875 50.515625 64.515625 
Q 56.984375 54.828125 56.984375 36.375 
Q 56.984375 17.96875 50.515625 8.265625 
Q 44.046875 -1.421875 31.78125 -1.421875 
Q 19.53125 -1.421875 13.0625 8.265625 
Q 6.59375 17.96875 6.59375 36.375 
Q 6.59375 54.828125 13.0625 64.515625 
Q 19.53125 74.21875 31.78125 74.21875 
" id="DejaVuSans-30"/>
      </defs>
      <g transform="translate(54.002526 174.342437)scale(0.1 -0.1)">
       <use xlink:href="#DejaVuSans-30"/>
      </g>
     </g>
    </g>
    <g id="xtick_2">
     <g id="line2d_2">
      <g>
       <use style="stroke:#000000;stroke-width:0.8;" x="98.475818" xlink:href="#mc233ed3a67" y="159.744"/>
      </g>
     </g>
     <g id="text_2">
      <!-- 25 -->
      <defs>
       <path d="M 19.1875 8.296875 
L 53.609375 8.296875 
L 53.609375 0 
L 7.328125 0 
L 7.328125 8.296875 
Q 12.9375 14.109375 22.625 23.890625 
Q 32.328125 33.6875 34.8125 36.53125 
Q 39.546875 41.84375 41.421875 45.53125 
Q 43.3125 49.21875 43.3125 52.78125 
Q 43.3125 58.59375 39.234375 62.25 
Q 35.15625 65.921875 28.609375 65.921875 
Q 23.96875 65.921875 18.8125 64.3125 
Q 13.671875 62.703125 7.8125 59.421875 
L 7.8125 69.390625 
Q 13.765625 71.78125 18.9375 73 
Q 24.125 74.21875 28.421875 74.21875 
Q 39.75 74.21875 46.484375 68.546875 
Q 53.21875 62.890625 53.21875 53.421875 
Q 53.21875 48.921875 51.53125 44.890625 
Q 49.859375 40.875 45.40625 35.40625 
Q 44.1875 33.984375 37.640625 27.21875 
Q 31.109375 20.453125 19.1875 8.296875 
" id="DejaVuSans-32"/>
       <path d="M 10.796875 72.90625 
L 49.515625 72.90625 
L 49.515625 64.59375 
L 19.828125 64.59375 
L 19.828125 46.734375 
Q 21.96875 47.46875 24.109375 47.828125 
Q 26.265625 48.1875 28.421875 48.1875 
Q 40.625 48.1875 47.75 41.5 
Q 54.890625 34.8125 54.890625 23.390625 
Q 54.890625 11.625 47.5625 5.09375 
Q 40.234375 -1.421875 26.90625 -1.421875 
Q 22.3125 -1.421875 17.546875 -0.640625 
Q 12.796875 0.140625 7.71875 1.703125 
L 7.71875 11.625 
Q 12.109375 9.234375 16.796875 8.0625 
Q 21.484375 6.890625 26.703125 6.890625 
Q 35.15625 6.890625 40.078125 11.328125 
Q 45.015625 15.765625 45.015625 23.390625 
Q 45.015625 31 40.078125 35.4375 
Q 35.15625 39.890625 26.703125 39.890625 
Q 22.75 39.890625 18.8125 39.015625 
Q 14.890625 38.140625 10.796875 36.28125 
z
" id="DejaVuSans-35"/>
      </defs>
      <g transform="translate(92.113318 174.342437)scale(0.1 -0.1)">
       <use xlink:href="#DejaVuSans-32"/>
       <use x="63.623047" xlink:href="#DejaVuSans-35"/>
      </g>
     </g>
    </g>
    <g id="xtick_3">
     <g id="line2d_3">
      <g>
       <use style="stroke:#000000;stroke-width:0.8;" x="139.767859" xlink:href="#mc233ed3a67" y="159.744"/>
      </g>
     </g>
     <g id="text_3">
      <!-- 50 -->
      <g transform="translate(133.405359 174.342437)scale(0.1 -0.1)">
       <use xlink:href="#DejaVuSans-35"/>
       <use x="63.623047" xlink:href="#DejaVuSans-30"/>
      </g>
     </g>
    </g>
    <g id="xtick_4">
     <g id="line2d_4">
      <g>
       <use style="stroke:#000000;stroke-width:0.8;" x="181.0599" xlink:href="#mc233ed3a67" y="159.744"/>
      </g>
     </g>
     <g id="text_4">
      <!-- 75 -->
      <defs>
       <path d="M 8.203125 72.90625 
L 55.078125 72.90625 
L 55.078125 68.703125 
L 28.609375 0 
L 18.3125 0 
L 43.21875 64.59375 
L 8.203125 64.59375 
z
" id="DejaVuSans-37"/>
      </defs>
      <g transform="translate(174.6974 174.342437)scale(0.1 -0.1)">
       <use xlink:href="#DejaVuSans-37"/>
       <use x="63.623047" xlink:href="#DejaVuSans-35"/>
      </g>
     </g>
    </g>
    <g id="xtick_5">
     <g id="line2d_5">
      <g>
       <use style="stroke:#000000;stroke-width:0.8;" x="222.351941" xlink:href="#mc233ed3a67" y="159.744"/>
      </g>
     </g>
     <g id="text_5">
      <!-- 100 -->
      <defs>
       <path d="M 12.40625 8.296875 
L 28.515625 8.296875 
L 28.515625 63.921875 
L 10.984375 60.40625 
L 10.984375 69.390625 
L 28.421875 72.90625 
L 38.28125 72.90625 
L 38.28125 8.296875 
L 54.390625 8.296875 
L 54.390625 0 
L 12.40625 0 
z
" id="DejaVuSans-31"/>
      </defs>
      <g transform="translate(212.808191 174.342437)scale(0.1 -0.1)">
       <use xlink:href="#DejaVuSans-31"/>
       <use x="63.623047" xlink:href="#DejaVuSans-30"/>
       <use x="127.246094" xlink:href="#DejaVuSans-30"/>
      </g>
     </g>
    </g>
    <g id="xtick_6">
     <g id="line2d_6">
      <g>
       <use style="stroke:#000000;stroke-width:0.8;" x="263.643983" xlink:href="#mc233ed3a67" y="159.744"/>
      </g>
     </g>
     <g id="text_6">
      <!-- 125 -->
      <g transform="translate(254.100233 174.342437)scale(0.1 -0.1)">
       <use xlink:href="#DejaVuSans-31"/>
       <use x="63.623047" xlink:href="#DejaVuSans-32"/>
       <use x="127.246094" xlink:href="#DejaVuSans-35"/>
      </g>
     </g>
    </g>
    <g id="xtick_7">
     <g id="line2d_7">
      <g>
       <use style="stroke:#000000;stroke-width:0.8;" x="304.936024" xlink:href="#mc233ed3a67" y="159.744"/>
      </g>
     </g>
     <g id="text_7">
      <!-- 150 -->
      <g transform="translate(295.392274 174.342437)scale(0.1 -0.1)">
       <use xlink:href="#DejaVuSans-31"/>
       <use x="63.623047" xlink:href="#DejaVuSans-35"/>
       <use x="127.246094" xlink:href="#DejaVuSans-30"/>
      </g>
     </g>
    </g>
    <g id="xtick_8">
     <g id="line2d_8">
      <g>
       <use style="stroke:#000000;stroke-width:0.8;" x="346.228065" xlink:href="#mc233ed3a67" y="159.744"/>
      </g>
     </g>
     <g id="text_8">
      <!-- 175 -->
      <g transform="translate(336.684315 174.342437)scale(0.1 -0.1)">
       <use xlink:href="#DejaVuSans-31"/>
       <use x="63.623047" xlink:href="#DejaVuSans-37"/>
       <use x="127.246094" xlink:href="#DejaVuSans-35"/>
      </g>
     </g>
    </g>
    <g id="xtick_9">
     <g id="line2d_9">
      <g>
       <use style="stroke:#000000;stroke-width:0.8;" x="387.520107" xlink:href="#mc233ed3a67" y="159.744"/>
      </g>
     </g>
     <g id="text_9">
      <!-- 200 -->
      <g transform="translate(377.976357 174.342437)scale(0.1 -0.1)">
       <use xlink:href="#DejaVuSans-32"/>
       <use x="63.623047" xlink:href="#DejaVuSans-30"/>
       <use x="127.246094" xlink:href="#DejaVuSans-30"/>
      </g>
     </g>
    </g>
   </g>
   <g id="matplotlib.axis_2">
    <g id="ytick_1">
     <g id="line2d_10">
      <defs>
       <path d="M 0 0 
L -3.5 0 
" id="m90373d235f" style="stroke:#000000;stroke-width:0.8;"/>
      </defs>
      <g>
       <use style="stroke:#000000;stroke-width:0.8;" x="57.6" xlink:href="#m90373d235f" y="124.240037"/>
      </g>
     </g>
     <g id="text_10">
      <!-- −2 -->
      <defs>
       <path d="M 10.59375 35.5 
L 73.1875 35.5 
L 73.1875 27.203125 
L 10.59375 27.203125 
z
" id="DejaVuSans-2212"/>
      </defs>
      <g transform="translate(35.857813 128.039255)scale(0.1 -0.1)">
       <use xlink:href="#DejaVuSans-2212"/>
       <use x="83.789062" xlink:href="#DejaVuSans-32"/>
      </g>
     </g>
    </g>
    <g id="ytick_2">
     <g id="line2d_11">
      <g>
       <use style="stroke:#000000;stroke-width:0.8;" x="57.6" xlink:href="#m90373d235f" y="80.982922"/>
      </g>
     </g>
     <g id="text_11">
      <!-- 0 -->
      <g transform="translate(44.2375 84.782141)scale(0.1 -0.1)">
       <use xlink:href="#DejaVuSans-30"/>
      </g>
     </g>
    </g>
   </g>
   <g id="line2d_12">
    <path clip-path="url(#pebbbde548b)" d="M 73.832727 89.116781 
L 85.724835 137.385936 
L 99.995365 79.643545 
L 114.265894 72.375731 
L 128.536424 84.660139 
L 142.806953 51.746007 
L 157.077483 60.211948 
L 171.348012 46.848 
L 185.618541 78.152135 
L 199.889071 59.788443 
L 214.1596 105.580964 
L 228.43013 77.677665 
L 242.700659 118.364722 
L 256.971189 100.107751 
L 271.241718 91.581102 
L 285.512248 115.263814 
L 299.782777 77.551135 
L 314.053307 80.754243 
L 328.323836 51.660437 
L 342.594366 64.603068 
L 356.864895 154.368 
L 371.135425 109.363877 
L 385.405954 82.409895 
L 398.487273 150.388853 
L 398.487273 150.388853 
" style="fill:none;stroke:#ff0000;stroke-linecap:square;stroke-width:2;"/>
   </g>
   <g id="patch_3">
    <path d="M 57.6 159.744 
L 57.6 41.472 
" style="fill:none;stroke:#000000;stroke-linecap:square;stroke-linejoin:miter;stroke-width:0.8;"/>
   </g>
   <g id="patch_4">
    <path d="M 414.72 159.744 
L 414.72 41.472 
" style="fill:none;stroke:#000000;stroke-linecap:square;stroke-linejoin:miter;stroke-width:0.8;"/>
   </g>
   <g id="patch_5">
    <path d="M 57.6 159.744 
L 414.72 159.744 
" style="fill:none;stroke:#000000;stroke-linecap:square;stroke-linejoin:miter;stroke-width:0.8;"/>
   </g>
   <g id="patch_6">
    <path d="M 57.6 41.472 
L 414.72 41.472 
" style="fill:none;stroke:#000000;stroke-linecap:square;stroke-linejoin:miter;stroke-width:0.8;"/>
   </g>
  </g>
  <g id="axes_2">
   <g id="patch_7">
    <path d="M 57.6 307.584 
L 414.72 307.584 
L 414.72 189.312 
L 57.6 189.312 
z
" style="fill:#ffffff;"/>
   </g>
   <g id="matplotlib.axis_3">
    <g id="xtick_10">
     <g id="line2d_13">
      <g>
       <use style="stroke:#000000;stroke-width:0.8;" x="57.183776" xlink:href="#mc233ed3a67" y="307.584"/>
      </g>
     </g>
     <g id="text_12">
      <!-- 0 -->
      <g transform="translate(54.002526 322.182437)scale(0.1 -0.1)">
       <use xlink:href="#DejaVuSans-30"/>
      </g>
     </g>
    </g>
    <g id="xtick_11">
     <g id="line2d_14">
      <g>
       <use style="stroke:#000000;stroke-width:0.8;" x="98.475818" xlink:href="#mc233ed3a67" y="307.584"/>
      </g>
     </g>
     <g id="text_13">
      <!-- 25 -->
      <g transform="translate(92.113318 322.182437)scale(0.1 -0.1)">
       <use xlink:href="#DejaVuSans-32"/>
       <use x="63.623047" xlink:href="#DejaVuSans-35"/>
      </g>
     </g>
    </g>
    <g id="xtick_12">
     <g id="line2d_15">
      <g>
       <use style="stroke:#000000;stroke-width:0.8;" x="139.767859" xlink:href="#mc233ed3a67" y="307.584"/>
      </g>
     </g>
     <g id="text_14">
      <!-- 50 -->
      <g transform="translate(133.405359 322.182437)scale(0.1 -0.1)">
       <use xlink:href="#DejaVuSans-35"/>
       <use x="63.623047" xlink:href="#DejaVuSans-30"/>
      </g>
     </g>
    </g>
    <g id="xtick_13">
     <g id="line2d_16">
      <g>
       <use style="stroke:#000000;stroke-width:0.8;" x="181.0599" xlink:href="#mc233ed3a67" y="307.584"/>
      </g>
     </g>
     <g id="text_15">
      <!-- 75 -->
      <g transform="translate(174.6974 322.182437)scale(0.1 -0.1)">
       <use xlink:href="#DejaVuSans-37"/>
       <use x="63.623047" xlink:href="#DejaVuSans-35"/>
      </g>
     </g>
    </g>
    <g id="xtick_14">
     <g id="line2d_17">
      <g>
       <use style="stroke:#000000;stroke-width:0.8;" x="222.351941" xlink:href="#mc233ed3a67" y="307.584"/>
      </g>
     </g>
     <g id="text_16">
      <!-- 100 -->
      <g transform="translate(212.808191 322.182437)scale(0.1 -0.1)">
       <use xlink:href="#DejaVuSans-31"/>
       <use x="63.623047" xlink:href="#DejaVuSans-30"/>
       <use x="127.246094" xlink:href="#DejaVuSans-30"/>
      </g>
     </g>
    </g>
    <g id="xtick_15">
     <g id="line2d_18">
      <g>
       <use style="stroke:#000000;stroke-width:0.8;" x="263.643983" xlink:href="#mc233ed3a67" y="307.584"/>
      </g>
     </g>
     <g id="text_17">
      <!-- 125 -->
      <g transform="translate(254.100233 322.182437)scale(0.1 -0.1)">
       <use xlink:href="#DejaVuSans-31"/>
       <use x="63.623047" xlink:href="#DejaVuSans-32"/>
       <use x="127.246094" xlink:href="#DejaVuSans-35"/>
      </g>
     </g>
    </g>
    <g id="xtick_16">
     <g id="line2d_19">
      <g>
       <use style="stroke:#000000;stroke-width:0.8;" x="304.936024" xlink:href="#mc233ed3a67" y="307.584"/>
      </g>
     </g>
     <g id="text_18">
      <!-- 150 -->
      <g transform="translate(295.392274 322.182437)scale(0.1 -0.1)">
       <use xlink:href="#DejaVuSans-31"/>
       <use x="63.623047" xlink:href="#DejaVuSans-35"/>
       <use x="127.246094" xlink:href="#DejaVuSans-30"/>
      </g>
     </g>
    </g>
    <g id="xtick_17">
     <g id="line2d_20">
      <g>
       <use style="stroke:#000000;stroke-width:0.8;" x="346.228065" xlink:href="#mc233ed3a67" y="307.584"/>
      </g>
     </g>
     <g id="text_19">
      <!-- 175 -->
      <g transform="translate(336.684315 322.182437)scale(0.1 -0.1)">
       <use xlink:href="#DejaVuSans-31"/>
       <use x="63.623047" xlink:href="#DejaVuSans-37"/>
       <use x="127.246094" xlink:href="#DejaVuSans-35"/>
      </g>
     </g>
    </g>
    <g id="xtick_18">
     <g id="line2d_21">
      <g>
       <use style="stroke:#000000;stroke-width:0.8;" x="387.520107" xlink:href="#mc233ed3a67" y="307.584"/>
      </g>
     </g>
     <g id="text_20">
      <!-- 200 -->
      <g transform="translate(377.976357 322.182437)scale(0.1 -0.1)">
       <use xlink:href="#DejaVuSans-32"/>
       <use x="63.623047" xlink:href="#DejaVuSans-30"/>
       <use x="127.246094" xlink:href="#DejaVuSans-30"/>
      </g>
     </g>
    </g>
    <g id="text_21">
     <!-- Time (Sec) -->
     <defs>
      <path d="M -0.296875 72.90625 
L 61.375 72.90625 
L 61.375 64.59375 
L 35.5 64.59375 
L 35.5 0 
L 25.59375 0 
L 25.59375 64.59375 
L -0.296875 64.59375 
z
" id="DejaVuSans-54"/>
      <path d="M 9.421875 54.6875 
L 18.40625 54.6875 
L 18.40625 0 
L 9.421875 0 
z
M 9.421875 75.984375 
L 18.40625 75.984375 
L 18.40625 64.59375 
L 9.421875 64.59375 
z
" id="DejaVuSans-69"/>
      <path d="M 52 44.1875 
Q 55.375 50.25 60.0625 53.125 
Q 64.75 56 71.09375 56 
Q 79.640625 56 84.28125 50.015625 
Q 88.921875 44.046875 88.921875 33.015625 
L 88.921875 0 
L 79.890625 0 
L 79.890625 32.71875 
Q 79.890625 40.578125 77.09375 44.375 
Q 74.3125 48.1875 68.609375 48.1875 
Q 61.625 48.1875 57.5625 43.546875 
Q 53.515625 38.921875 53.515625 30.90625 
L 53.515625 0 
L 44.484375 0 
L 44.484375 32.71875 
Q 44.484375 40.625 41.703125 44.40625 
Q 38.921875 48.1875 33.109375 48.1875 
Q 26.21875 48.1875 22.15625 43.53125 
Q 18.109375 38.875 18.109375 30.90625 
L 18.109375 0 
L 9.078125 0 
L 9.078125 54.6875 
L 18.109375 54.6875 
L 18.109375 46.1875 
Q 21.1875 51.21875 25.484375 53.609375 
Q 29.78125 56 35.6875 56 
Q 41.65625 56 45.828125 52.96875 
Q 50 49.953125 52 44.1875 
" id="DejaVuSans-6d"/>
      <path d="M 56.203125 29.59375 
L 56.203125 25.203125 
L 14.890625 25.203125 
Q 15.484375 15.921875 20.484375 11.0625 
Q 25.484375 6.203125 34.421875 6.203125 
Q 39.59375 6.203125 44.453125 7.46875 
Q 49.3125 8.734375 54.109375 11.28125 
L 54.109375 2.78125 
Q 49.265625 0.734375 44.1875 -0.34375 
Q 39.109375 -1.421875 33.890625 -1.421875 
Q 20.796875 -1.421875 13.15625 6.1875 
Q 5.515625 13.8125 5.515625 26.8125 
Q 5.515625 40.234375 12.765625 48.109375 
Q 20.015625 56 32.328125 56 
Q 43.359375 56 49.78125 48.890625 
Q 56.203125 41.796875 56.203125 29.59375 
M 47.21875 32.234375 
Q 47.125 39.59375 43.09375 43.984375 
Q 39.0625 48.390625 32.421875 48.390625 
Q 24.90625 48.390625 20.390625 44.140625 
Q 15.875 39.890625 15.1875 32.171875 
z
" id="DejaVuSans-65"/>
      <path id="DejaVuSans-20"/>
      <path d="M 31 75.875 
Q 24.46875 64.65625 21.28125 53.65625 
Q 18.109375 42.671875 18.109375 31.390625 
Q 18.109375 20.125 21.3125 9.0625 
Q 24.515625 -2 31 -13.1875 
L 23.1875 -13.1875 
Q 15.875 -1.703125 12.234375 9.375 
Q 8.59375 20.453125 8.59375 31.390625 
Q 8.59375 42.28125 12.203125 53.3125 
Q 15.828125 64.359375 23.1875 75.875 
z
" id="DejaVuSans-28"/>
      <path d="M 53.515625 70.515625 
L 53.515625 60.890625 
Q 47.90625 63.578125 42.921875 64.890625 
Q 37.9375 66.21875 33.296875 66.21875 
Q 25.25 66.21875 20.875 63.09375 
Q 16.5 59.96875 16.5 54.203125 
Q 16.5 49.359375 19.40625 46.890625 
Q 22.3125 44.4375 30.421875 42.921875 
L 36.375 41.703125 
Q 47.40625 39.59375 52.65625 34.296875 
Q 57.90625 29 57.90625 20.125 
Q 57.90625 9.515625 50.796875 4.046875 
Q 43.703125 -1.421875 29.984375 -1.421875 
Q 24.8125 -1.421875 18.96875 -0.25 
Q 13.140625 0.921875 6.890625 3.21875 
L 6.890625 13.375 
Q 12.890625 10.015625 18.65625 8.296875 
Q 24.421875 6.59375 29.984375 6.59375 
Q 38.421875 6.59375 43.015625 9.90625 
Q 47.609375 13.234375 47.609375 19.390625 
Q 47.609375 24.75 44.3125 27.78125 
Q 41.015625 30.8125 33.5 32.328125 
L 27.484375 33.5 
Q 16.453125 35.6875 11.515625 40.375 
Q 6.59375 45.0625 6.59375 53.421875 
Q 6.59375 63.09375 13.40625 68.65625 
Q 20.21875 74.21875 32.171875 74.21875 
Q 37.3125 74.21875 42.625 73.28125 
Q 47.953125 72.359375 53.515625 70.515625 
" id="DejaVuSans-53"/>
      <path d="M 48.78125 52.59375 
L 48.78125 44.1875 
Q 44.96875 46.296875 41.140625 47.34375 
Q 37.3125 48.390625 33.40625 48.390625 
Q 24.65625 48.390625 19.8125 42.84375 
Q 14.984375 37.3125 14.984375 27.296875 
Q 14.984375 17.28125 19.8125 11.734375 
Q 24.65625 6.203125 33.40625 6.203125 
Q 37.3125 6.203125 41.140625 7.25 
Q 44.96875 8.296875 48.78125 10.40625 
L 48.78125 2.09375 
Q 45.015625 0.34375 40.984375 -0.53125 
Q 36.96875 -1.421875 32.421875 -1.421875 
Q 20.0625 -1.421875 12.78125 6.34375 
Q 5.515625 14.109375 5.515625 27.296875 
Q 5.515625 40.671875 12.859375 48.328125 
Q 20.21875 56 33.015625 56 
Q 37.15625 56 41.109375 55.140625 
Q 45.0625 54.296875 48.78125 52.59375 
" id="DejaVuSans-63"/>
      <path d="M 8.015625 75.875 
L 15.828125 75.875 
Q 23.140625 64.359375 26.78125 53.3125 
Q 30.421875 42.28125 30.421875 31.390625 
Q 30.421875 20.453125 26.78125 9.375 
Q 23.140625 -1.703125 15.828125 -13.1875 
L 8.015625 -13.1875 
Q 14.5 -2 17.703125 9.0625 
Q 20.90625 20.125 20.90625 31.390625 
Q 20.90625 42.671875 17.703125 53.65625 
Q 14.5 64.65625 8.015625 75.875 
" id="DejaVuSans-29"/>
     </defs>
     <g transform="translate(209.281875 335.860562)scale(0.1 -0.1)">
      <use xlink:href="#DejaVuSans-54"/>
      <use x="61.037109" xlink:href="#DejaVuSans-69"/>
      <use x="88.820312" xlink:href="#DejaVuSans-6d"/>
      <use x="186.232422" xlink:href="#DejaVuSans-65"/>
      <use x="247.755859" xlink:href="#DejaVuSans-20"/>
      <use x="279.542969" xlink:href="#DejaVuSans-28"/>
      <use x="318.556641" xlink:href="#DejaVuSans-53"/>
      <use x="382.033203" xlink:href="#DejaVuSans-65"/>
      <use x="443.556641" xlink:href="#DejaVuSans-63"/>
      <use x="498.537109" xlink:href="#DejaVuSans-29"/>
     </g>
    </g>
   </g>
   <g id="matplotlib.axis_4">
    <g id="ytick_3">
     <g id="line2d_22">
      <g>
       <use style="stroke:#000000;stroke-width:0.8;" x="57.6" xlink:href="#m90373d235f" y="302.244452"/>
      </g>
     </g>
     <g id="text_22">
      <!-- −20 -->
      <g transform="translate(29.495313 306.043671)scale(0.1 -0.1)">
       <use xlink:href="#DejaVuSans-2212"/>
       <use x="83.789062" xlink:href="#DejaVuSans-32"/>
       <use x="147.412109" xlink:href="#DejaVuSans-30"/>
      </g>
     </g>
    </g>
    <g id="ytick_4">
     <g id="line2d_23">
      <g>
       <use style="stroke:#000000;stroke-width:0.8;" x="57.6" xlink:href="#m90373d235f" y="273.268409"/>
      </g>
     </g>
     <g id="text_23">
      <!-- −10 -->
      <g transform="translate(29.495313 277.067628)scale(0.1 -0.1)">
       <use xlink:href="#DejaVuSans-2212"/>
       <use x="83.789062" xlink:href="#DejaVuSans-31"/>
       <use x="147.412109" xlink:href="#DejaVuSans-30"/>
      </g>
     </g>
    </g>
    <g id="ytick_5">
     <g id="line2d_24">
      <g>
       <use style="stroke:#000000;stroke-width:0.8;" x="57.6" xlink:href="#m90373d235f" y="244.292366"/>
      </g>
     </g>
     <g id="text_24">
      <!-- 0 -->
      <g transform="translate(44.2375 248.091585)scale(0.1 -0.1)">
       <use xlink:href="#DejaVuSans-30"/>
      </g>
     </g>
    </g>
    <g id="ytick_6">
     <g id="line2d_25">
      <g>
       <use style="stroke:#000000;stroke-width:0.8;" x="57.6" xlink:href="#m90373d235f" y="215.316322"/>
      </g>
     </g>
     <g id="text_25">
      <!-- 10 -->
      <g transform="translate(37.875 219.115541)scale(0.1 -0.1)">
       <use xlink:href="#DejaVuSans-31"/>
       <use x="63.623047" xlink:href="#DejaVuSans-30"/>
      </g>
     </g>
    </g>
   </g>
   <g id="line2d_26">
    <path clip-path="url(#p5f1179cdbb)" d="M 73.832727 250.22863 
L 75.021938 252.84172 
L 78.58957 262.752593 
L 79.778781 264.511999 
L 80.967992 264.650014 
L 82.157203 263.065209 
L 83.346414 259.970286 
L 84.535624 255.825944 
L 86.914046 246.657512 
L 88.103257 242.596351 
L 89.292468 239.282512 
L 90.481678 236.842933 
L 91.670889 235.311618 
L 92.8601 234.65477 
L 94.049311 234.784749 
L 95.238521 235.571549 
L 96.427732 236.839233 
L 98.806154 239.778441 
L 99.995365 240.832427 
L 101.184575 241.257688 
L 102.373786 240.916845 
L 103.562997 239.80968 
L 104.752208 238.090056 
L 107.130629 233.996627 
L 108.31984 232.259602 
L 109.509051 231.036463 
L 110.698262 230.410191 
L 111.887473 230.331926 
L 113.076683 230.64502 
L 115.455105 231.609583 
L 116.644316 231.900814 
L 117.833526 231.94462 
L 120.211948 231.637014 
L 121.401159 231.697093 
L 122.59037 232.190653 
L 123.77958 233.249903 
L 124.968791 234.885156 
L 128.536424 241.18604 
L 129.725634 242.708638 
L 130.914845 243.536255 
L 132.104056 243.629275 
L 133.293267 243.14916 
L 134.482478 242.438351 
L 135.671688 241.91924 
L 136.860899 241.971244 
L 138.05011 242.842173 
L 139.239321 244.586538 
L 140.428531 247.016646 
L 142.806953 252.22533 
L 143.996164 254.055303 
L 145.185375 254.921896 
L 146.374585 254.745167 
L 147.563796 253.704428 
L 149.942218 250.751262 
L 151.131429 249.811173 
L 152.320639 249.704476 
L 153.50985 250.544802 
L 154.699061 252.202342 
L 157.077483 256.506734 
L 158.266693 258.300592 
L 159.455904 259.425505 
L 160.645115 259.746099 
L 161.834326 259.280477 
L 163.023536 258.164647 
L 164.212747 256.59863 
L 167.78038 251.172942 
L 168.96959 249.658903 
L 170.158801 248.545102 
L 171.348012 247.97027 
L 172.537223 248.024547 
L 173.726434 248.726007 
L 174.915644 249.993349 
L 177.294066 253.221721 
L 178.483277 254.446944 
L 179.672488 254.953907 
L 180.861698 254.545962 
L 182.050909 253.196066 
L 183.24012 251.061735 
L 186.807752 243.264685 
L 187.996963 241.276607 
L 189.186174 239.882921 
L 190.375385 239.037746 
L 191.564595 238.561998 
L 192.753806 238.209003 
L 193.943017 237.740104 
L 195.132228 236.980324 
L 196.321439 235.858978 
L 199.889071 231.557169 
L 201.078282 230.573571 
L 202.267493 230.131588 
L 203.456703 230.330367 
L 204.645914 231.289829 
L 205.835125 233.192283 
L 207.024336 236.235478 
L 208.213546 240.549381 
L 209.402757 246.133654 
L 211.781179 260.025882 
L 212.97039 267.085946 
L 214.1596 273.121535 
L 215.348811 277.422574 
L 216.538022 279.569371 
L 217.727233 279.47992 
L 218.916444 277.376744 
L 220.105654 273.697315 
L 221.294865 268.976701 
L 224.862498 253.417081 
L 226.051708 249.098208 
L 227.240919 245.919512 
L 228.43013 244.310824 
L 229.619341 244.568301 
L 230.808551 246.776632 
L 231.997762 250.764847 
L 233.186973 256.076171 
L 235.565395 267.834902 
L 236.754605 272.85076 
L 237.943816 276.618021 
L 239.133027 278.904291 
L 240.322238 279.604643 
L 241.511449 278.663739 
L 242.700659 276.071414 
L 243.88987 271.896038 
L 245.079081 266.307822 
L 246.268292 259.595658 
L 249.835924 237.447795 
L 251.025135 231.117523 
L 252.214346 225.918258 
L 253.403556 222.017892 
L 254.592767 219.609865 
L 255.781978 218.988747 
L 256.971189 220.473398 
L 258.1604 224.267611 
L 259.34961 230.358377 
L 260.538821 238.433143 
L 264.106454 266.110997 
L 265.295664 272.960833 
L 266.484875 277.343554 
L 267.674086 279.0763 
L 268.863297 278.361097 
L 270.052507 275.677877 
L 271.241718 271.641716 
L 275.998561 252.754758 
L 277.187772 249.075939 
L 278.376983 246.153529 
L 279.566194 244.011884 
L 280.755405 242.608701 
L 281.944615 241.880541 
L 283.133826 241.819991 
L 284.323037 242.509112 
L 285.512248 244.075086 
L 286.701459 246.614393 
L 287.890669 250.134017 
L 289.07988 254.492398 
L 291.458302 264.07643 
L 292.647512 268.10041 
L 293.836723 270.864665 
L 295.025934 272.050518 
L 296.215145 271.613205 
L 297.404356 269.798248 
L 298.593566 267.084277 
L 300.971988 261.238127 
L 302.161199 259.038234 
L 303.35041 257.642854 
L 304.53962 257.007465 
L 305.728831 256.882534 
L 306.918042 256.911975 
L 308.107253 256.748286 
L 309.296464 256.135621 
L 310.485674 254.952017 
L 311.674885 253.220875 
L 314.053307 248.753186 
L 316.431728 244.28443 
L 317.620939 242.401041 
L 319.999361 239.316237 
L 322.377782 236.340426 
L 323.566993 234.589845 
L 325.945415 230.465052 
L 327.134625 228.343625 
L 328.323836 226.460741 
L 329.513047 225.010407 
L 330.702258 224.110971 
L 331.891469 223.768825 
L 333.080679 223.847767 
L 334.26989 224.084358 
L 335.459101 224.161361 
L 336.648312 223.796655 
L 337.837522 222.809859 
L 339.026733 221.194899 
L 341.405155 217.375677 
L 342.594366 216.31444 
L 343.783576 216.567762 
L 344.972787 218.451536 
L 346.161998 221.961941 
L 347.351209 226.700307 
L 349.72963 236.740494 
L 350.918841 240.367335 
L 352.108052 242.285112 
L 353.297263 242.349224 
L 354.486474 240.849689 
L 356.864895 235.984113 
L 358.054106 234.223995 
L 359.243317 233.711278 
L 360.432527 234.675628 
L 361.621738 237.012193 
L 362.810949 240.341667 
L 365.189371 247.913695 
L 366.378581 251.252157 
L 367.567792 253.94697 
L 368.757003 255.99919 
L 373.513846 262.579165 
L 374.703057 264.963707 
L 377.081479 270.319308 
L 378.270689 272.535932 
L 379.4599 273.926316 
L 380.649111 274.256872 
L 381.838322 273.493427 
L 383.027532 271.828167 
L 385.405954 267.39934 
L 386.595165 265.524251 
L 387.784376 264.316171 
L 388.973586 263.886079 
L 390.162797 264.105508 
L 391.352008 264.6287 
L 392.541219 265.006618 
L 393.73043 264.826448 
L 394.91964 263.810278 
L 396.108851 261.857483 
L 397.298062 259.044267 
L 398.487273 255.583115 
L 398.487273 255.583115 
" style="fill:none;stroke:#ff0000;stroke-linecap:square;stroke-width:2;"/>
   </g>
   <g id="line2d_27">
    <path clip-path="url(#p5f1179cdbb)" d="M 73.832727 243.033245 
L 75.021938 241.657926 
L 76.211149 265.99941 
L 77.40036 256.326262 
L 78.58957 273.181319 
L 79.778781 257.231261 
L 80.967992 265.81337 
L 82.157203 268.386431 
L 83.346414 256.578885 
L 84.535624 252.237626 
L 85.724835 262.182615 
L 86.914046 232.061988 
L 88.103257 233.273141 
L 89.292468 238.159719 
L 90.481678 254.955035 
L 91.670889 246.52785 
L 92.8601 223.562573 
L 94.049311 243.881344 
L 95.238521 224.426052 
L 96.427732 232.167902 
L 97.616943 237.005123 
L 98.806154 245.360564 
L 99.995365 242.942891 
L 101.184575 237.132186 
L 102.373786 235.054375 
L 103.562997 247.695567 
L 104.752208 244.777962 
L 105.941419 222.952436 
L 107.130629 236.581446 
L 108.31984 232.069161 
L 109.509051 243.690771 
L 110.698262 236.823938 
L 111.887473 220.54994 
L 113.076683 222.810376 
L 114.265894 221.121369 
L 115.455105 233.927701 
L 116.644316 239.494703 
L 117.833526 230.852272 
L 119.022737 237.076299 
L 120.211948 235.102414 
L 121.401159 223.966592 
L 122.59037 244.444506 
L 123.77958 216.969489 
L 124.968791 246.633353 
L 126.158002 255.0085 
L 127.347213 211.439063 
L 128.536424 241.551308 
L 129.725634 237.575504 
L 130.914845 229.99014 
L 132.104056 262.902217 
L 133.293267 244.292596 
L 134.482478 238.715044 
L 135.671688 266.101328 
L 136.860899 237.862945 
L 138.05011 242.303472 
L 139.239321 241.886303 
L 140.428531 238.030914 
L 141.617742 231.948483 
L 142.806953 248.965294 
L 143.996164 270.006754 
L 145.185375 246.245649 
L 146.374585 269.263273 
L 147.563796 266.054304 
L 148.753007 235.189654 
L 149.942218 260.220201 
L 152.320639 234.818557 
L 153.50985 271.217304 
L 154.699061 247.358527 
L 155.888272 236.305438 
L 157.077483 265.774343 
L 158.266693 266.663324 
L 159.455904 262.765707 
L 160.645115 233.350774 
L 161.834326 276.493447 
L 163.023536 265.00048 
L 164.212747 245.084999 
L 165.401958 271.190507 
L 166.591169 240.645196 
L 167.78038 258.87794 
L 168.96959 252.0972 
L 170.158801 236.189097 
L 171.348012 238.191831 
L 172.537223 257.368074 
L 173.726434 242.340632 
L 174.915644 269.205792 
L 176.104855 258.445573 
L 177.294066 218.14615 
L 178.483277 280.28601 
L 179.672488 263.394262 
L 180.861698 233.864518 
L 182.050909 262.984174 
L 183.24012 234.295978 
L 184.429331 255.504246 
L 185.618541 263.331247 
L 186.807752 229.811176 
L 187.996963 242.074391 
L 189.186174 239.352893 
L 190.375385 242.027322 
L 191.564595 247.266354 
L 192.753806 230.132452 
L 193.943017 236.16618 
L 195.132228 217.873656 
L 196.321439 230.110982 
L 197.510649 273.967137 
L 198.69986 228.451694 
L 199.889071 234.301956 
L 201.078282 224.464529 
L 202.267493 215.983056 
L 203.456703 230.653959 
L 204.645914 227.2698 
L 205.835125 234.178304 
L 207.024336 247.607173 
L 208.213546 248.678606 
L 209.402757 247.940062 
L 210.591968 251.12715 
L 211.781179 244.340559 
L 212.97039 258.798267 
L 214.1596 290.094129 
L 215.348811 266.391852 
L 216.538022 282.273732 
L 217.727233 288.191438 
L 218.916444 279.813456 
L 220.105654 267.279661 
L 221.294865 257.102578 
L 222.484076 281.493569 
L 223.673287 258.687802 
L 224.862498 259.031197 
L 226.051708 237.373273 
L 227.240919 258.614775 
L 228.43013 222.904057 
L 229.619341 223.545033 
L 230.808551 264.082997 
L 231.997762 282.005666 
L 233.186973 251.709747 
L 234.376184 246.634788 
L 235.565395 272.037538 
L 236.754605 256.850456 
L 237.943816 302.208 
L 239.133027 273.99188 
L 240.322238 256.356677 
L 241.511449 288.142639 
L 242.700659 285.751266 
L 243.88987 267.047452 
L 245.079081 279.292364 
L 246.268292 256.771907 
L 247.457502 231.173129 
L 248.646713 252.861911 
L 249.835924 245.513879 
L 251.025135 221.703005 
L 252.214346 234.674788 
L 254.592767 208.452063 
L 255.781978 229.968412 
L 256.971189 220.188041 
L 258.1604 206.722404 
L 259.34961 250.220854 
L 260.538821 243.618921 
L 261.728032 254.913721 
L 262.917243 250.663209 
L 264.106454 256.911071 
L 265.295664 247.52254 
L 266.484875 288.09463 
L 267.674086 271.986102 
L 268.863297 290.968994 
L 270.052507 299.644239 
L 271.241718 275.600486 
L 272.430929 267.140497 
L 273.62014 242.696736 
L 274.809351 246.956194 
L 275.998561 270.619664 
L 277.187772 252.225177 
L 278.376983 222.729377 
L 279.566194 236.827979 
L 280.755405 243.839872 
L 281.944615 253.633642 
L 283.133826 250.310416 
L 284.323037 241.340527 
L 285.512248 253.071482 
L 286.701459 246.786806 
L 287.890669 256.689021 
L 289.07988 243.552499 
L 290.269091 253.948419 
L 291.458302 260.139526 
L 292.647512 263.923446 
L 293.836723 253.273945 
L 295.025934 274.473986 
L 296.215145 301.908801 
L 297.404356 270.554471 
L 298.593566 272.556178 
L 299.782777 265.204473 
L 300.971988 247.804906 
L 302.161199 245.491824 
L 303.35041 260.494062 
L 304.53962 271.424442 
L 305.728831 254.468491 
L 306.918042 256.661006 
L 308.107253 243.733801 
L 309.296464 271.319133 
L 310.485674 243.313009 
L 311.674885 258.802997 
L 312.864096 258.579688 
L 314.053307 253.559532 
L 315.242517 222.116892 
L 316.431728 263.248274 
L 317.620939 234.052129 
L 318.81015 238.893445 
L 319.999361 239.865392 
L 321.188571 237.236996 
L 322.377782 241.362822 
L 323.566993 244.343198 
L 324.756204 242.975631 
L 325.945415 211.025597 
L 327.134625 204.813384 
L 328.323836 238.666801 
L 329.513047 230.505819 
L 330.702258 238.07487 
L 331.891469 227.869711 
L 333.080679 203.97306 
L 334.26989 216.908434 
L 335.459101 237.076777 
L 336.648312 239.763969 
L 337.837522 210.911207 
L 339.026733 217.335249 
L 340.215944 212.143169 
L 341.405155 217.70727 
L 342.594366 238.017591 
L 343.783576 194.688 
L 344.972787 220.951713 
L 346.161998 220.132572 
L 347.351209 234.122836 
L 348.54042 255.334165 
L 349.72963 213.819629 
L 350.918841 227.745271 
L 352.108052 250.478614 
L 353.297263 230.185904 
L 354.486474 248.96176 
L 355.675684 260.01188 
L 356.864895 235.658156 
L 358.054106 221.742366 
L 359.243317 231.619549 
L 360.432527 235.058222 
L 361.621738 237.742024 
L 362.810949 220.296629 
L 364.00016 253.536874 
L 365.189371 278.558267 
L 366.378581 239.734832 
L 367.567792 243.063268 
L 368.757003 260.952793 
L 369.946214 245.100404 
L 371.135425 264.403098 
L 372.324635 259.858152 
L 373.513846 266.539381 
L 374.703057 268.96371 
L 375.892268 284.636912 
L 377.081479 245.760135 
L 378.270689 255.752473 
L 379.4599 288.765653 
L 380.649111 286.923996 
L 381.838322 288.562437 
L 383.027532 257.446575 
L 384.216743 252.120222 
L 385.405954 266.442218 
L 386.595165 271.30504 
L 387.784376 268.988208 
L 388.973586 267.09026 
L 390.162797 269.468477 
L 391.352008 267.546944 
L 392.541219 249.898721 
L 393.73043 267.691143 
L 394.91964 261.733212 
L 396.108851 261.469534 
L 397.298062 253.754942 
L 398.487273 277.669882 
L 398.487273 277.669882 
" style="fill:none;stroke:#0000ff;stroke-linecap:square;stroke-width:2;"/>
   </g>
   <g id="patch_8">
    <path d="M 57.6 307.584 
L 57.6 189.312 
" style="fill:none;stroke:#000000;stroke-linecap:square;stroke-linejoin:miter;stroke-width:0.8;"/>
   </g>
   <g id="patch_9">
    <path d="M 414.72 307.584 
L 414.72 189.312 
" style="fill:none;stroke:#000000;stroke-linecap:square;stroke-linejoin:miter;stroke-width:0.8;"/>
   </g>
   <g id="patch_10">
    <path d="M 57.6 307.584 
L 414.72 307.584 
" style="fill:none;stroke:#000000;stroke-linecap:square;stroke-linejoin:miter;stroke-width:0.8;"/>
   </g>
   <g id="patch_11">
    <path d="M 57.6 189.312 
L 414.72 189.312 
" style="fill:none;stroke:#000000;stroke-linecap:square;stroke-linejoin:miter;stroke-width:0.8;"/>
   </g>
   <g id="text_26">
    <!-- BOLD signal -->
    <defs>
     <path d="M 19.671875 34.8125 
L 19.671875 8.109375 
L 35.5 8.109375 
Q 43.453125 8.109375 47.28125 11.40625 
Q 51.125 14.703125 51.125 21.484375 
Q 51.125 28.328125 47.28125 31.5625 
Q 43.453125 34.8125 35.5 34.8125 
z
M 19.671875 64.796875 
L 19.671875 42.828125 
L 34.28125 42.828125 
Q 41.5 42.828125 45.03125 45.53125 
Q 48.578125 48.25 48.578125 53.8125 
Q 48.578125 59.328125 45.03125 62.0625 
Q 41.5 64.796875 34.28125 64.796875 
z
M 9.8125 72.90625 
L 35.015625 72.90625 
Q 46.296875 72.90625 52.390625 68.21875 
Q 58.5 63.53125 58.5 54.890625 
Q 58.5 48.1875 55.375 44.234375 
Q 52.25 40.28125 46.1875 39.3125 
Q 53.46875 37.75 57.5 32.78125 
Q 61.53125 27.828125 61.53125 20.40625 
Q 61.53125 10.640625 54.890625 5.3125 
Q 48.25 0 35.984375 0 
L 9.8125 0 
z
" id="DejaVuSans-42"/>
     <path d="M 39.40625 66.21875 
Q 28.65625 66.21875 22.328125 58.203125 
Q 16.015625 50.203125 16.015625 36.375 
Q 16.015625 22.609375 22.328125 14.59375 
Q 28.65625 6.59375 39.40625 6.59375 
Q 50.140625 6.59375 56.421875 14.59375 
Q 62.703125 22.609375 62.703125 36.375 
Q 62.703125 50.203125 56.421875 58.203125 
Q 50.140625 66.21875 39.40625 66.21875 
M 39.40625 74.21875 
Q 54.734375 74.21875 63.90625 63.9375 
Q 73.09375 53.65625 73.09375 36.375 
Q 73.09375 19.140625 63.90625 8.859375 
Q 54.734375 -1.421875 39.40625 -1.421875 
Q 24.03125 -1.421875 14.8125 8.828125 
Q 5.609375 19.09375 5.609375 36.375 
Q 5.609375 53.65625 14.8125 63.9375 
Q 24.03125 74.21875 39.40625 74.21875 
" id="DejaVuSans-4f"/>
     <path d="M 9.8125 72.90625 
L 19.671875 72.90625 
L 19.671875 8.296875 
L 55.171875 8.296875 
L 55.171875 0 
L 9.8125 0 
z
" id="DejaVuSans-4c"/>
     <path d="M 19.671875 64.796875 
L 19.671875 8.109375 
L 31.59375 8.109375 
Q 46.6875 8.109375 53.6875 14.9375 
Q 60.6875 21.78125 60.6875 36.53125 
Q 60.6875 51.171875 53.6875 57.984375 
Q 46.6875 64.796875 31.59375 64.796875 
z
M 9.8125 72.90625 
L 30.078125 72.90625 
Q 51.265625 72.90625 61.171875 64.09375 
Q 71.09375 55.28125 71.09375 36.53125 
Q 71.09375 17.671875 61.125 8.828125 
Q 51.171875 0 30.078125 0 
L 9.8125 0 
z
" id="DejaVuSans-44"/>
     <path d="M 44.28125 53.078125 
L 44.28125 44.578125 
Q 40.484375 46.53125 36.375 47.5 
Q 32.28125 48.484375 27.875 48.484375 
Q 21.1875 48.484375 17.84375 46.4375 
Q 14.5 44.390625 14.5 40.28125 
Q 14.5 37.15625 16.890625 35.375 
Q 19.28125 33.59375 26.515625 31.984375 
L 29.59375 31.296875 
Q 39.15625 29.25 43.1875 25.515625 
Q 47.21875 21.78125 47.21875 15.09375 
Q 47.21875 7.46875 41.1875 3.015625 
Q 35.15625 -1.421875 24.609375 -1.421875 
Q 20.21875 -1.421875 15.453125 -0.5625 
Q 10.6875 0.296875 5.421875 2 
L 5.421875 11.28125 
Q 10.40625 8.6875 15.234375 7.390625 
Q 20.0625 6.109375 24.8125 6.109375 
Q 31.15625 6.109375 34.5625 8.28125 
Q 37.984375 10.453125 37.984375 14.40625 
Q 37.984375 18.0625 35.515625 20.015625 
Q 33.0625 21.96875 24.703125 23.78125 
L 21.578125 24.515625 
Q 13.234375 26.265625 9.515625 29.90625 
Q 5.8125 33.546875 5.8125 39.890625 
Q 5.8125 47.609375 11.28125 51.796875 
Q 16.75 56 26.8125 56 
Q 31.78125 56 36.171875 55.265625 
Q 40.578125 54.546875 44.28125 53.078125 
" id="DejaVuSans-73"/>
     <path d="M 45.40625 27.984375 
Q 45.40625 37.75 41.375 43.109375 
Q 37.359375 48.484375 30.078125 48.484375 
Q 22.859375 48.484375 18.828125 43.109375 
Q 14.796875 37.75 14.796875 27.984375 
Q 14.796875 18.265625 18.828125 12.890625 
Q 22.859375 7.515625 30.078125 7.515625 
Q 37.359375 7.515625 41.375 12.890625 
Q 45.40625 18.265625 45.40625 27.984375 
M 54.390625 6.78125 
Q 54.390625 -7.171875 48.1875 -13.984375 
Q 42 -20.796875 29.203125 -20.796875 
Q 24.46875 -20.796875 20.265625 -20.09375 
Q 16.0625 -19.390625 12.109375 -17.921875 
L 12.109375 -9.1875 
Q 16.0625 -11.328125 19.921875 -12.34375 
Q 23.78125 -13.375 27.78125 -13.375 
Q 36.625 -13.375 41.015625 -8.765625 
Q 45.40625 -4.15625 45.40625 5.171875 
L 45.40625 9.625 
Q 42.625 4.78125 38.28125 2.390625 
Q 33.9375 0 27.875 0 
Q 17.828125 0 11.671875 7.65625 
Q 5.515625 15.328125 5.515625 27.984375 
Q 5.515625 40.671875 11.671875 48.328125 
Q 17.828125 56 27.875 56 
Q 33.9375 56 38.28125 53.609375 
Q 42.625 51.21875 45.40625 46.390625 
L 45.40625 54.6875 
L 54.390625 54.6875 
z
" id="DejaVuSans-67"/>
     <path d="M 54.890625 33.015625 
L 54.890625 0 
L 45.90625 0 
L 45.90625 32.71875 
Q 45.90625 40.484375 42.875 44.328125 
Q 39.84375 48.1875 33.796875 48.1875 
Q 26.515625 48.1875 22.3125 43.546875 
Q 18.109375 38.921875 18.109375 30.90625 
L 18.109375 0 
L 9.078125 0 
L 9.078125 54.6875 
L 18.109375 54.6875 
L 18.109375 46.1875 
Q 21.34375 51.125 25.703125 53.5625 
Q 30.078125 56 35.796875 56 
Q 45.21875 56 50.046875 50.171875 
Q 54.890625 44.34375 54.890625 33.015625 
" id="DejaVuSans-6e"/>
     <path d="M 34.28125 27.484375 
Q 23.390625 27.484375 19.1875 25 
Q 14.984375 22.515625 14.984375 16.5 
Q 14.984375 11.71875 18.140625 8.90625 
Q 21.296875 6.109375 26.703125 6.109375 
Q 34.1875 6.109375 38.703125 11.40625 
Q 43.21875 16.703125 43.21875 25.484375 
L 43.21875 27.484375 
z
M 52.203125 31.203125 
L 52.203125 0 
L 43.21875 0 
L 43.21875 8.296875 
Q 40.140625 3.328125 35.546875 0.953125 
Q 30.953125 -1.421875 24.3125 -1.421875 
Q 15.921875 -1.421875 10.953125 3.296875 
Q 6 8.015625 6 15.921875 
Q 6 25.140625 12.171875 29.828125 
Q 18.359375 34.515625 30.609375 34.515625 
L 43.21875 34.515625 
L 43.21875 35.40625 
Q 43.21875 41.609375 39.140625 45 
Q 35.0625 48.390625 27.6875 48.390625 
Q 23 48.390625 18.546875 47.265625 
Q 14.109375 46.140625 10.015625 43.890625 
L 10.015625 52.203125 
Q 14.9375 54.109375 19.578125 55.046875 
Q 24.21875 56 28.609375 56 
Q 40.484375 56 46.34375 49.84375 
Q 52.203125 43.703125 52.203125 31.203125 
" id="DejaVuSans-61"/>
     <path d="M 9.421875 75.984375 
L 18.40625 75.984375 
L 18.40625 0 
L 9.421875 0 
z
" id="DejaVuSans-6c"/>
    </defs>
    <g transform="translate(199.703438 183.312)scale(0.12 -0.12)">
     <use xlink:href="#DejaVuSans-42"/>
     <use x="68.587891" xlink:href="#DejaVuSans-4f"/>
     <use x="147.298828" xlink:href="#DejaVuSans-4c"/>
     <use x="203.011719" xlink:href="#DejaVuSans-44"/>
     <use x="280.013672" xlink:href="#DejaVuSans-20"/>
     <use x="311.800781" xlink:href="#DejaVuSans-73"/>
     <use x="363.900391" xlink:href="#DejaVuSans-69"/>
     <use x="391.683594" xlink:href="#DejaVuSans-67"/>
     <use x="455.160156" xlink:href="#DejaVuSans-6e"/>
     <use x="518.539062" xlink:href="#DejaVuSans-61"/>
     <use x="579.818359" xlink:href="#DejaVuSans-6c"/>
    </g>
   </g>
  </g>
 </g>
 <defs>
  <clipPath id="pebbbde548b">
   <rect height="118.272" width="357.12" x="57.6" y="41.472"/>
  </clipPath>
  <clipPath id="p5f1179cdbb">
   <rect height="118.272" width="357.12" x="57.6" y="189.312"/>
  </clipPath>
 </defs>
</svg>
